<?xml version="1.0" standalone="no"?>
<!DOCTYPE svg PUBLIC "-//W3C//DTD SVG 20010904//EN"
 "http://www.w3.org/TR/2001/REC-SVG-20010904/DTD/svg10.dtd">
<svg version="1.0" xmlns="http://www.w3.org/2000/svg"
 width="754.000000pt" height="191.000000pt" viewBox="0 0 754.000000 191.000000"
 preserveAspectRatio="xMidYMid meet">

<g transform="translate(0.000000,191.000000) scale(0.100000,-0.100000)"
fill="#000000" stroke="none">
<path d="M885 1854 c-158 -26 -316 -87 -429 -168 -89 -64 -214 -200 -265 -290
-93 -164 -134 -359 -112 -532 42 -323 225 -571 524 -715 142 -67 217 -83 407
-83 151 0 173 3 255 28 333 100 564 335 651 663 25 94 25 310 0 408 -26 100
-98 248 -162 332 -120 157 -310 281 -509 333 -79 21 -291 35 -360 24z m145
-210 c14 -10 41 -32 60 -49 19 -18 52 -39 72 -46 33 -11 42 -10 99 16 87 39
136 43 172 15 37 -29 37 -92 -2 -175 -26 -57 -28 -59 -39 -38 -11 19 -9 30 13
72 40 80 31 120 -23 100 -31 -12 -92 -59 -92 -71 0 -6 14 -28 31 -49 29 -37
79 -122 151 -259 26 -49 29 -63 26 -127 -3 -55 -9 -79 -26 -102 -12 -17 -18
-31 -13 -31 5 0 13 5 17 11 6 11 66 -87 127 -211 28 -57 32 -75 32 -145 0 -67
-5 -90 -28 -140 -60 -128 -185 -215 -376 -264 -108 -27 -113 -27 -133 8 -34
61 -152 61 -186 0 -16 -27 -20 -29 -62 -23 -69 10 -189 51 -246 83 -74 43
-156 122 -188 182 -59 107 -46 222 47 417 34 72 46 89 58 81 24 -15 30 -10 10
10 -42 42 -52 141 -23 218 25 65 136 250 175 290 l31 33 -29 29 c-40 42 -92
66 -111 51 -20 -17 -18 -34 13 -96 21 -43 24 -58 16 -76 -10 -21 -13 -19 -39
37 -15 33 -30 83 -32 111 -4 46 -2 53 24 73 37 29 88 25 176 -16 63 -29 63
-29 108 -12 25 9 46 23 48 31 2 10 11 13 28 10 19 -3 23 -1 18 12 -8 20 5 21
33 1 24 -17 37 -7 22 15 -24 39 -1 52 41 24z m355 -185 c-20 -43 -31 -48 -51
-21 -19 25 -18 29 23 57 45 30 53 19 28 -36z m-743 22 l33 -30 -22 -22 -22
-22 -20 34 c-22 36 -27 69 -11 69 5 0 24 -13 42 -29z m419 -1311 c50 -27 -3
-87 -67 -77 -20 3 -42 11 -50 18 -19 16 -18 46 4 58 22 14 88 14 113 1z"/>
<path d="M720 1225 c-11 -13 -7 -15 25 -15 21 0 49 -9 66 -21 26 -18 28 -19
22 -2 -17 50 -84 73 -113 38z"/>
<path d="M1191 1214 c-30 -38 -26 -48 8 -23 21 15 39 20 65 17 38 -4 44 0 24
20 -22 22 -75 14 -97 -14z"/>
<path d="M975 1160 c-4 -6 0 -22 9 -35 15 -22 14 -24 -4 -30 -29 -9 -40 2 -33
35 3 18 1 30 -5 30 -13 0 -24 -47 -16 -72 5 -17 12 -20 48 -15 22 3 50 2 61
-3 42 -16 68 24 49 74 -12 30 -25 16 -18 -19 6 -36 -3 -43 -40 -29 -14 5 -14
9 -1 34 8 15 11 30 8 34 -10 10 -51 7 -58 -4z"/>
<path d="M1019 961 c-21 -16 -25 -17 -49 -3 -15 9 -34 13 -43 9 -24 -9 -55
-63 -74 -128 l-16 -56 -34 10 c-20 6 -49 24 -65 39 -35 32 -38 33 -38 14 0
-20 61 -65 103 -77 20 -5 45 -18 58 -27 18 -15 20 -22 11 -39 -32 -60 -163
-53 -249 13 -19 14 -37 23 -40 20 -11 -11 29 -46 84 -72 47 -23 62 -26 123
-22 44 3 70 2 70 -5 0 -6 11 -25 26 -44 68 -90 185 -83 251 16 22 33 24 33
100 35 65 1 86 5 124 28 25 15 52 34 59 43 23 27 3 28 -33 1 -39 -30 -108 -56
-149 -56 -16 0 -45 7 -64 15 -30 12 -35 19 -32 42 3 23 12 30 62 50 62 24 106
57 106 80 0 19 -8 16 -33 -12 -22 -25 -95 -58 -109 -48 -5 2 -8 14 -8 26 0 35
-33 117 -57 143 -26 29 -53 30 -84 5z m61 -171 c11 -99 6 -220 -8 -220 -4 0
-6 48 -4 107 2 63 -3 141 -11 188 -8 44 -12 84 -9 90 8 13 18 -39 32 -165z
m-134 135 c-4 -14 -11 -60 -16 -103 -9 -70 -8 -106 6 -216 4 -36 3 -38 -12
-25 -15 12 -16 33 -12 180 3 92 9 172 12 178 14 21 28 11 22 -14z m40 -162 c0
-87 3 -171 7 -186 6 -22 5 -28 -5 -25 -20 7 -23 368 -3 368 2 0 2 -71 1 -157z"/>
<path d="M622 633 c-22 -9 -42 -61 -42 -110 1 -88 52 -163 121 -178 58 -13 88
46 54 105 -8 14 -14 50 -15 81 0 45 -5 61 -25 83 -23 25 -60 33 -93 19z m58
-28 c0 -8 6 -15 14 -15 19 0 26 -22 26 -81 0 -28 7 -64 16 -80 20 -40 12 -59
-26 -59 -73 0 -132 121 -100 205 7 18 15 25 25 21 9 -3 15 0 15 9 0 8 7 15 15
15 8 0 15 -7 15 -15z"/>
<path d="M1305 615 c-20 -19 -25 -34 -25 -74 0 -28 -8 -72 -19 -98 -30 -78 0
-117 74 -93 67 22 112 109 102 198 -9 83 -80 120 -132 67z m65 -9 c0 -8 8 -13
17 -12 23 2 34 -57 21 -117 -12 -59 -57 -107 -99 -107 -38 0 -46 22 -25 66 9
19 16 58 16 87 0 56 11 84 29 73 6 -4 11 0 11 8 0 9 7 16 15 16 8 0 15 -6 15
-14z"/>
<path d="M4830 1373 c-1 -110 -3 -143 -11 -130 -16 27 -87 57 -134 57 -165 0
-268 -214 -185 -386 58 -119 216 -150 306 -60 l32 32 6 -38 c6 -36 8 -38 41
-38 l35 0 0 355 0 355 -45 0 -45 0 0 -147z m-37 -182 c31 -30 32 -35 35 -125
4 -107 -9 -144 -61 -176 -66 -40 -153 -13 -189 60 -41 80 -12 219 54 260 49
31 120 23 161 -19z"/>
<path d="M6640 1165 l0 -355 45 0 45 0 0 93 c0 85 2 96 23 115 l23 22 83 -115
82 -115 49 0 c28 0 50 2 50 5 0 3 -46 66 -102 141 l-101 135 29 32 c16 18 58
62 94 100 l64 67 -56 0 c-43 0 -59 -4 -69 -19 -8 -11 -49 -60 -91 -110 l-78
-92 0 226 0 225 -45 0 -45 0 0 -355z"/>
<path d="M2587 1479 c-99 -23 -188 -96 -230 -187 -17 -38 -21 -67 -21 -152 -1
-124 19 -181 87 -248 67 -66 124 -86 242 -86 82 -1 175 15 175 28 0 2 -5 16
-10 33 l-11 30 -52 -14 c-153 -39 -292 26 -331 156 -43 147 6 297 117 350 58
28 149 36 214 18 l52 -14 11 30 c13 38 7 44 -59 57 -63 12 -131 12 -184 -1z"/>
<path d="M5980 1475 c-109 -31 -171 -83 -219 -185 -23 -48 -26 -68 -26 -155 0
-121 23 -182 92 -246 74 -68 120 -83 248 -83 66 1 128 7 155 15 l45 15 3 162
2 162 -110 0 -110 0 0 -35 0 -35 70 0 70 0 0 -100 0 -99 -37 -10 c-142 -40
-290 33 -328 160 -66 225 88 411 309 372 33 -6 68 -14 77 -18 12 -5 20 2 28
26 6 18 11 33 11 35 0 1 -15 7 -32 14 -56 19 -187 22 -248 5z"/>
<path d="M6407 1462 c-33 -36 -8 -92 40 -92 25 0 53 30 53 57 0 46 -62 69 -93
35z"/>
<path d="M3007 1289 c-62 -14 -79 -27 -71 -52 3 -12 8 -23 9 -25 1 -1 30 5 63
13 97 25 164 -1 178 -71 l6 -29 -87 -12 c-145 -20 -208 -73 -209 -176 0 -123
146 -179 261 -98 l43 31 0 -30 c0 -28 2 -30 39 -30 l38 0 -4 168 c-5 210 -7
225 -44 267 -45 51 -125 67 -222 44z m183 -283 c0 -68 -30 -116 -84 -133 -47
-16 -80 -8 -106 24 -60 76 16 159 148 162 l42 1 0 -54z"/>
<path d="M3487 1286 c-52 -19 -75 -42 -88 -87 -23 -75 12 -126 117 -174 79
-36 102 -63 90 -109 -3 -14 -16 -31 -29 -38 -31 -16 -107 -13 -145 6 -32 17
-32 16 -43 -10 -14 -39 -7 -50 45 -63 92 -23 172 -7 223 44 29 29 33 39 33 89
0 49 -4 59 -33 88 -18 18 -62 46 -99 61 -79 34 -100 65 -70 106 29 39 84 45
153 17 12 -5 19 1 27 24 10 29 9 32 -16 41 -46 18 -124 20 -165 5z"/>
<path d="M3887 1289 c-62 -14 -79 -27 -71 -52 3 -12 8 -23 9 -25 1 -1 30 5 63
13 97 25 164 -1 178 -71 l6 -29 -87 -12 c-145 -20 -208 -73 -209 -176 0 -123
146 -179 261 -98 l43 31 0 -30 c0 -28 2 -30 39 -30 l38 0 -4 168 c-5 210 -7
225 -44 267 -45 51 -125 67 -222 44z m183 -283 c0 -68 -30 -116 -84 -133 -47
-16 -80 -8 -106 24 -60 76 16 159 148 162 l42 1 0 -54z"/>
<path d="M5137 1289 c-62 -14 -79 -27 -71 -52 3 -12 8 -23 9 -25 1 -1 30 5 63
13 97 25 164 -1 178 -71 l6 -29 -87 -12 c-145 -20 -208 -73 -209 -176 0 -123
146 -179 261 -98 l43 31 0 -30 c0 -28 2 -30 39 -30 l38 0 -4 168 c-5 210 -7
225 -44 267 -45 51 -125 67 -222 44z m183 -283 c0 -68 -30 -116 -84 -133 -47
-16 -80 -8 -106 24 -60 76 16 159 148 162 l42 1 0 -54z"/>
<path d="M7207 1289 c-62 -14 -79 -27 -71 -52 3 -12 8 -23 9 -25 1 -1 30 5 63
13 97 25 164 -1 178 -71 l6 -29 -87 -12 c-145 -20 -208 -73 -209 -176 0 -123
146 -179 261 -98 l43 31 0 -30 c0 -28 2 -30 39 -30 l38 0 -4 168 c-5 210 -7
225 -44 267 -45 51 -125 67 -222 44z m183 -283 c0 -68 -30 -116 -84 -133 -47
-16 -80 -8 -106 24 -60 76 16 159 148 162 l42 1 0 -54z"/>
<path d="M6400 1050 l0 -240 45 0 45 0 0 240 0 240 -45 0 -45 0 0 -240z"/>
</g>
</svg>
