<?xml version="1.0" standalone="no"?>
<!DOCTYPE svg PUBLIC "-//W3C//DTD SVG 20010904//EN"
 "http://www.w3.org/TR/2001/REC-SVG-20010904/DTD/svg10.dtd">
<svg version="1.0" xmlns="http://www.w3.org/2000/svg"
 width="4724.000000pt" height="4555.000000pt" viewBox="0 0 4724.000000 4555.000000"
 preserveAspectRatio="xMidYMid meet">

<g transform="translate(0.000000,4555.000000) scale(0.100000,-0.100000)"
fill="#000000" stroke="none">
<path d="M23120 44834 c-1859 -30 -3582 -256 -5335 -699 -3879 -981 -7408
-2920 -10255 -5636 -1748 -1668 -3183 -3556 -4315 -5679 -137 -256 -438 -868
-564 -1145 -1076 -2370 -1703 -4840 -1871 -7380 -60 -910 -58 -2086 5 -3065
77 -1176 304 -2551 630 -3802 711 -2732 1940 -5276 3640 -7538 585 -779 1289
-1581 2145 -2443 733 -740 1214 -1169 1972 -1758 1568 -1220 3285 -2236 5098
-3019 4126 -1781 8687 -2327 13210 -1579 2671 441 5288 1370 7648 2716 2234
1273 4195 2870 5878 4783 1889 2148 3338 4653 4253 7353 639 1885 994 3756
1101 5792 18 334 24 1384 11 1770 -83 2409 -509 4578 -1331 6780 -1263 3381
-3376 6421 -6160 8860 -2242 1963 -4887 3487 -7735 4454 -2187 744 -4368 1141
-6690 1220 -325 11 -1053 19 -1335 15z m290 -4928 c186 -57 491 -196 690 -316
237 -143 611 -406 717 -503 25 -23 49 -52 54 -65 5 -14 20 -25 38 -28 39 -8
165 -121 521 -465 358 -346 667 -670 690 -724 24 -55 79 -102 185 -157 122
-63 197 -92 575 -223 179 -61 379 -135 445 -162 66 -28 174 -72 240 -98 66
-26 215 -89 330 -140 230 -101 366 -155 390 -155 31 0 342 169 651 353 176
105 412 225 789 402 931 437 1747 699 2480 796 227 30 583 33 790 6 417 -55
556 -91 790 -207 220 -108 309 -173 506 -370 200 -200 292 -344 368 -576 54
-165 63 -250 68 -592 9 -587 -53 -1178 -146 -1389 -17 -40 -43 -123 -57 -185
-26 -116 -71 -256 -118 -366 -15 -34 -31 -95 -35 -135 -11 -86 -17 -104 -41
-112 -23 -7 -41 -46 -75 -160 -15 -49 -47 -135 -72 -189 -24 -54 -49 -124 -55
-155 -16 -91 -21 -104 -53 -121 -22 -12 -35 -32 -50 -76 -53 -150 -485 -1030
-575 -1169 -28 -44 -74 -125 -102 -179 -56 -111 -86 -156 -104 -156 -14 0 -72
90 -129 199 -21 40 -56 91 -77 113 -21 22 -38 47 -38 57 0 56 -283 534 -341
574 -25 18 -40 63 -32 95 3 15 25 45 47 67 57 56 140 183 242 376 47 90 111
199 142 244 31 45 171 313 324 620 339 683 467 978 488 1126 6 43 22 93 41
130 48 92 69 230 76 499 6 254 -3 315 -59 424 -45 86 -182 220 -273 268 -108
56 -233 90 -335 90 -133 1 -400 -69 -615 -162 -62 -26 -131 -51 -154 -55 -32
-5 -45 -13 -56 -36 -15 -28 -61 -59 -88 -59 -7 0 -36 -11 -64 -25 -37 -19 -54
-35 -62 -55 -5 -17 -17 -30 -25 -30 -23 0 -140 -65 -265 -148 -146 -97 -229
-163 -252 -202 -12 -20 -27 -30 -42 -30 -48 0 -191 -109 -457 -350 -69 -62
-147 -127 -175 -145 -67 -44 -192 -152 -408 -352 -188 -175 -247 -242 -272
-312 -17 -50 -20 -139 -4 -194 19 -70 132 -199 493 -566 394 -399 490 -505
500 -551 3 -17 12 -30 20 -30 18 0 68 -56 130 -145 100 -142 160 -216 186
-230 19 -10 30 -25 34 -48 4 -19 38 -79 76 -133 123 -174 160 -232 173 -270 7
-24 23 -43 42 -54 22 -12 43 -42 77 -109 51 -101 71 -129 106 -142 12 -5 22
-15 22 -24 0 -20 72 -155 220 -415 143 -251 200 -362 200 -389 0 -11 17 -37
38 -59 23 -24 67 -97 109 -183 60 -122 82 -176 109 -277 2 -7 14 -16 27 -21
27 -10 54 -63 82 -158 12 -43 30 -74 56 -101 28 -29 43 -59 59 -113 12 -41 43
-110 69 -154 64 -106 95 -163 249 -461 271 -523 594 -1052 933 -1529 168 -237
238 -351 415 -667 81 -145 180 -321 221 -392 315 -546 476 -1032 582 -1756 69
-468 86 -733 78 -1220 -6 -366 -18 -548 -57 -835 -62 -454 -170 -917 -291
-1241 -126 -341 -269 -624 -314 -624 -8 0 -26 -25 -41 -57 -20 -41 -65 -95
-172 -205 -152 -155 -250 -238 -283 -238 -11 0 -24 -11 -31 -25 -14 -31 -86
-76 -238 -148 -125 -59 -190 -102 -217 -143 -16 -26 -16 -27 6 -45 89 -72 615
85 958 287 118 69 185 117 278 200 92 81 167 128 176 112 12 -22 28 -127 39
-253 25 -292 85 -513 173 -632 13 -17 36 -66 51 -110 16 -43 47 -107 71 -143
23 -36 68 -114 100 -175 82 -156 213 -391 250 -450 18 -27 76 -133 130 -235
53 -102 115 -210 136 -240 113 -162 322 -530 334 -588 4 -18 16 -38 27 -45 46
-28 315 -468 344 -562 7 -25 29 -61 51 -82 102 -103 691 -1175 971 -1768 284
-600 409 -917 608 -1535 250 -781 356 -1514 341 -2365 -13 -686 -79 -1128
-273 -1817 -168 -598 -238 -814 -288 -886 -13 -21 -29 -62 -35 -93 -31 -173
-541 -1160 -846 -1637 -408 -640 -849 -1134 -1519 -1700 -711 -602 -842 -703
-1411 -1092 -132 -90 -349 -241 -482 -336 -358 -254 -641 -417 -1258 -724
-567 -281 -925 -438 -1285 -562 -113 -38 -252 -93 -310 -120 -323 -154 -769
-283 -2270 -658 -1257 -313 -1722 -407 -2240 -450 -117 -9 -749 -40 -832 -40
l-38 0 0 108 c-1 173 -30 298 -110 470 -128 272 -375 578 -615 760 -94 71
-176 115 -490 262 -200 94 -580 169 -1020 201 -191 14 -534 6 -720 -16 -492
-59 -1003 -250 -1375 -513 -115 -81 -292 -250 -364 -346 -153 -205 -218 -379
-258 -686 -11 -91 -22 -166 -24 -168 -4 -5 -132 -21 -266 -33 -312 -27 -1040
57 -1803 207 -518 102 -915 200 -1391 343 -164 49 -434 129 -599 176 -910 262
-1188 365 -1924 719 -166 81 -387 185 -490 232 -289 132 -469 223 -681 345
-382 218 -723 429 -1070 660 -215 144 -271 183 -413 292 -28 22 -65 40 -89 43
-28 5 -42 13 -48 29 -10 27 -71 77 -170 140 -109 70 -187 133 -209 171 -16 26
-29 35 -60 40 -33 5 -55 21 -123 88 -46 45 -175 162 -288 260 -540 470 -909
853 -1353 1405 -618 770 -945 1290 -1267 2016 -174 392 -284 721 -409 1220
-124 497 -131 560 -138 1320 -8 866 12 1367 67 1725 48 315 215 991 355 1435
24 77 60 203 80 280 23 87 55 178 85 240 34 70 50 117 53 158 5 56 27 109 87
212 17 30 33 78 40 117 14 93 59 205 375 943 264 616 593 1329 739 1600 343
639 722 1447 790 1683 36 124 101 297 190 505 79 184 116 292 116 338 0 35 24
49 62 38 16 -4 73 -39 126 -77 146 -105 204 -140 347 -208 291 -139 568 -214
751 -202 71 4 95 18 78 46 -18 29 -67 56 -190 107 -236 96 -297 134 -497 312
-151 134 -254 253 -269 310 -6 24 -32 73 -58 108 -159 215 -351 744 -454 1252
-53 257 -154 840 -172 988 -20 159 -22 590 -5 815 51 669 189 1360 362 1811
56 149 75 211 84 281 4 27 30 96 62 160 69 141 158 351 179 424 19 67 235 502
329 664 37 63 98 171 136 239 38 68 108 176 155 239 86 116 125 184 138 234 3
15 14 29 25 33 25 8 151 179 345 467 245 368 355 550 380 631 3 9 16 21 29 26
12 5 29 16 36 25 7 8 64 118 126 243 124 249 258 489 365 653 37 58 131 227
208 377 143 275 198 377 302 558 31 55 89 163 128 240 49 96 81 148 102 164
20 14 47 55 75 115 44 92 58 110 98 131 11 5 25 28 32 50 21 70 125 226 202
303 34 34 43 50 43 77 0 27 11 47 55 96 31 34 80 97 110 140 234 333 923 1074
1112 1196 58 37 88 81 128 188 45 118 33 181 -58 301 -66 87 -233 253 -271
269 -17 7 -85 64 -151 126 -251 235 -523 457 -618 505 -26 14 -50 31 -54 40
-14 36 -352 287 -440 326 -26 11 -65 39 -86 60 -49 51 -203 151 -342 223 -60
32 -155 84 -210 116 -106 61 -207 99 -450 170 -139 41 -158 44 -265 44 -107
-1 -121 -3 -205 -36 -116 -44 -193 -95 -282 -186 -144 -147 -181 -270 -170
-578 11 -309 66 -581 161 -805 30 -69 78 -183 106 -255 73 -180 245 -539 412
-860 250 -479 305 -575 360 -627 15 -15 28 -37 28 -50 1 -36 35 -103 116 -224
91 -138 126 -213 132 -282 4 -51 3 -54 -42 -102 -83 -89 -293 -440 -322 -538
-12 -39 -22 -56 -39 -62 -33 -12 -52 -53 -78 -166 l-22 -96 -50 63 c-125 158
-171 235 -316 522 -83 166 -191 376 -239 467 -49 91 -123 239 -165 330 -43 91
-133 282 -202 425 -80 169 -131 288 -143 339 -11 44 -36 116 -56 160 -58 129
-101 247 -109 296 -4 25 -22 72 -41 105 -66 119 -222 733 -268 1055 -63 433
-71 907 -21 1195 41 233 157 473 350 720 79 101 189 205 217 205 23 0 58 26
58 44 1 39 413 247 635 319 178 58 407 82 805 81 168 0 364 -6 435 -12 258
-25 603 -89 755 -142 47 -16 131 -38 188 -49 57 -12 171 -44 255 -72 218 -74
1061 -413 1278 -514 252 -118 617 -306 774 -399 72 -42 177 -100 234 -127 58
-28 124 -68 148 -89 49 -43 167 -107 261 -140 46 -17 75 -21 110 -17 63 7 223
66 507 187 127 54 286 121 355 148 305 121 940 330 1165 383 72 17 148 35 169
41 53 13 143 105 181 183 42 85 41 150 -5 239 -45 90 -132 180 -185 192 -35 9
-40 13 -40 39 0 86 181 108 461 54 122 -23 237 -62 367 -123 164 -78 258 -92
338 -50 47 24 117 92 147 143 23 40 27 57 27 126 0 71 -4 88 -33 145 -18 36
-54 91 -80 122 -183 220 -197 242 -175 277 14 22 101 31 193 21 108 -12 244
-59 405 -139 167 -83 304 -173 440 -288 170 -144 360 -260 463 -284 52 -12
109 18 177 94 75 83 119 173 113 230 -8 66 -69 205 -158 358 -109 188 -175
325 -206 430 -17 56 -37 99 -55 119 -36 39 -43 67 -36 135 11 108 79 203 187
261 41 22 54 24 135 20 56 -3 123 -15 175 -30z m9851 -3492 c-7 -252 -45 -412
-178 -754 -53 -135 -111 -288 -130 -340 -32 -90 -79 -195 -234 -519 -38 -79
-98 -184 -133 -235 -35 -50 -73 -111 -85 -134 -12 -24 -40 -63 -60 -85 -21
-23 -61 -83 -89 -132 -47 -84 -136 -199 -169 -218 -8 -5 -42 3 -89 22 -127 51
-285 209 -517 517 -171 227 -283 449 -294 585 l-6 66 49 63 c32 41 99 102 196
177 81 63 179 142 216 176 92 83 263 217 436 341 356 256 653 425 936 531 148
56 154 54 151 -61z m-19798 -99 c84 -32 160 -66 332 -146 139 -65 522 -314
765 -498 160 -122 275 -214 295 -237 11 -12 37 -35 57 -51 261 -200 389 -319
404 -378 13 -50 -25 -170 -102 -323 -159 -317 -532 -757 -702 -830 -98 -42
-107 -41 -158 14 -25 26 -66 82 -92 123 -26 42 -64 101 -85 131 -38 55 -59 86
-172 260 -61 94 -225 388 -225 404 0 5 -15 41 -34 80 -46 95 -81 180 -99 241
-8 28 -28 80 -45 115 -63 136 -223 583 -251 704 -15 61 -41 276 -41 339 0 46
23 87 50 87 6 0 52 -16 103 -35z m10476 -32521 c368 -42 793 -191 1065 -371
112 -75 254 -210 313 -298 22 -33 56 -91 75 -130 121 -242 119 -312 -16 -571
-161 -308 -329 -459 -736 -663 -193 -96 -297 -135 -405 -151 -112 -16 -645
-32 -830 -25 -402 15 -622 69 -948 231 -268 133 -398 237 -605 484 -200 240
-279 383 -269 486 15 150 200 433 374 574 100 81 222 149 457 256 281 128 505
174 966 198 115 6 432 -5 559 -20z"/>
<path d="M17417 29725 c-203 -25 -390 -80 -566 -167 -217 -107 -477 -360 -614
-594 -60 -104 -85 -177 -69 -197 17 -20 55 -11 215 53 158 63 331 111 508 141
117 20 167 23 404 24 302 0 405 -13 651 -80 401 -110 680 -287 1044 -661 146
-150 212 -233 245 -308 38 -85 89 -110 122 -59 16 24 18 54 17 283 -1 197 -5
275 -18 344 -84 432 -428 812 -996 1098 -163 82 -224 103 -355 123 -123 18
-435 18 -588 0z"/>
<path d="M29000 29730 c-86 -9 -204 -53 -379 -142 -389 -199 -713 -497 -861
-793 -91 -182 -144 -457 -138 -715 4 -169 14 -203 65 -208 34 -3 39 1 81 66
66 101 576 623 662 677 97 61 319 181 400 216 260 112 606 168 975 156 356
-12 598 -65 902 -201 54 -25 94 -36 115 -34 29 3 33 6 31 31 -3 36 -51 141
-105 227 -259 413 -668 664 -1170 719 -107 12 -460 12 -578 1z"/>
<path d="M23296 27989 c-387 -37 -579 -157 -602 -376 -8 -76 21 -193 91 -368
68 -169 76 -186 145 -275 75 -99 151 -213 183 -275 14 -27 57 -86 96 -129 80
-91 125 -167 116 -196 -21 -66 -293 -242 -465 -302 -92 -32 -218 -49 -361 -49
-278 -1 -419 56 -480 194 -20 44 -23 68 -22 157 1 138 28 230 138 460 47 99
89 201 95 235 24 118 -7 393 -61 538 -27 71 -96 151 -145 167 -41 14 -102 7
-145 -16 -69 -35 -163 -207 -175 -321 -9 -84 -38 -194 -104 -398 -112 -344
-134 -464 -134 -710 1 -152 4 -192 22 -260 45 -165 132 -293 272 -399 163
-124 308 -163 645 -173 431 -13 620 28 901 194 228 135 239 137 336 69 189
-132 608 -307 875 -366 175 -39 353 -17 529 64 379 175 653 527 671 861 9 150
-58 467 -162 780 -35 105 -82 253 -105 330 -52 176 -75 240 -102 278 -51 71
-195 93 -301 44 -78 -36 -153 -112 -162 -164 -14 -86 85 -512 167 -723 73
-184 86 -477 32 -671 -13 -48 -29 -74 -70 -118 -227 -245 -600 -171 -1221 243
l-91 62 75 134 c74 133 117 202 158 251 11 14 73 131 138 260 119 241 190 425
221 581 26 124 22 151 -23 201 -81 87 -210 145 -391 173 -117 18 -451 26 -584
13z"/>
<path d="M24741 23345 c-141 -32 -347 -108 -456 -170 -103 -57 -204 -144 -450
-385 -222 -217 -374 -353 -456 -407 -51 -33 -105 -33 -164 2 -24 14 -127 103
-227 197 -322 302 -443 375 -738 445 -155 36 -366 43 -477 15 -187 -47 -338
-150 -612 -417 -162 -158 -291 -306 -291 -335 0 -10 -24 -44 -53 -74 -59 -60
-160 -202 -200 -281 -13 -27 -69 -122 -122 -210 -155 -254 -385 -742 -509
-1076 -92 -249 -204 -617 -261 -851 -76 -321 -217 -1079 -231 -1246 -4 -53
-12 -86 -20 -89 -17 -6 -246 61 -924 274 -314 98 -650 246 -860 380 -52 33
-135 81 -185 108 -109 57 -112 60 -133 104 -11 23 -27 37 -45 42 -38 10 -98
60 -251 209 -155 151 -345 362 -457 507 -158 205 -232 268 -328 280 -68 8
-131 -17 -194 -76 -67 -63 -101 -123 -101 -181 0 -88 150 -351 208 -366 17 -4
29 -17 36 -38 16 -51 151 -199 469 -517 243 -243 307 -302 356 -327 33 -16
101 -60 150 -97 141 -105 398 -248 685 -381 213 -99 300 -132 379 -145 89 -14
828 -256 1041 -341 308 -123 563 -259 736 -394 222 -173 309 -344 308 -609 -1
-205 -40 -325 -162 -490 -350 -477 -984 -775 -1852 -870 -714 -78 -1397 -4
-2103 229 -363 119 -671 251 -1152 494 -224 113 -298 155 -330 188 -22 23 -57
47 -78 54 -53 17 -210 122 -276 185 -36 34 -70 57 -97 64 -25 7 -71 37 -125
82 -46 40 -160 136 -254 215 -93 78 -213 181 -265 230 -163 149 -245 190 -332
165 -126 -37 -227 -136 -228 -223 -1 -176 286 -468 935 -948 99 -73 211 -158
250 -189 38 -30 121 -83 185 -117 63 -33 176 -98 251 -142 185 -110 336 -189
395 -207 27 -8 92 -40 144 -71 145 -85 213 -118 360 -169 74 -26 155 -57 180
-70 66 -34 176 -65 227 -65 34 0 50 -6 70 -26 34 -34 82 -50 223 -75 143 -25
214 -43 271 -68 57 -25 148 -38 389 -56 347 -25 795 -37 1210 -32 569 6 661
22 1210 207 164 56 311 100 332 100 30 0 42 -6 61 -32 37 -50 48 -75 69 -158
10 -41 39 -120 64 -175 25 -55 57 -134 72 -175 14 -41 29 -85 34 -98 4 -13 22
-28 38 -34 20 -7 32 -19 36 -36 22 -108 258 -496 414 -682 35 -41 73 -97 85
-125 27 -61 175 -221 425 -460 299 -287 478 -439 530 -450 16 -4 39 -20 51
-36 28 -39 169 -121 413 -239 232 -112 404 -187 531 -229 284 -94 1060 -147
1465 -100 85 10 428 91 550 131 36 11 117 44 180 74 64 29 127 55 140 58 14 2
38 7 53 11 20 4 33 16 43 40 11 27 22 36 56 46 125 33 494 267 662 419 48 44
94 80 101 80 18 0 218 187 353 331 147 157 189 208 203 246 5 17 28 45 50 63
79 63 311 376 325 439 4 14 19 38 34 54 39 39 100 144 201 347 94 191 139 297
139 330 0 30 18 60 35 60 23 0 52 55 70 134 30 122 104 250 134 231 6 -3 11
-15 11 -25 0 -23 32 -45 78 -54 17 -3 87 -30 155 -59 185 -82 338 -128 597
-180 382 -77 903 -127 1185 -113 150 8 821 87 973 115 57 11 111 26 120 34 25
21 73 35 201 57 147 25 269 60 385 111 186 83 262 111 330 124 143 28 359 116
706 290 257 128 372 196 552 328 79 57 226 161 327 231 225 156 311 221 449
340 238 206 456 431 534 551 31 48 37 65 32 90 -20 99 -193 255 -283 255 -72
0 -613 -414 -700 -535 -17 -25 -34 -36 -60 -40 -52 -9 -81 -23 -81 -39 0 -65
-668 -480 -1152 -716 -824 -401 -1687 -620 -2438 -620 -370 0 -822 61 -1218
165 -436 115 -907 402 -1149 700 -89 111 -127 180 -154 282 -26 99 -36 310
-20 411 25 158 66 229 225 387 102 100 188 164 237 174 18 3 37 15 43 26 18
31 35 42 151 99 213 104 558 230 1047 382 697 216 856 281 1194 485 261 157
470 307 485 347 5 12 21 27 36 33 42 16 103 68 281 244 177 173 295 305 312
349 6 16 22 31 39 37 70 24 270 341 286 453 18 117 -76 237 -220 282 -117 37
-172 5 -327 -194 -268 -341 -384 -470 -578 -642 -204 -181 -287 -249 -330
-269 -19 -8 -62 -34 -95 -57 -117 -81 -548 -302 -760 -389 -84 -35 -221 -76
-473 -144 -84 -23 -280 -84 -435 -136 -155 -51 -295 -95 -312 -97 l-29 -3 -43
235 c-72 400 -102 547 -158 775 -30 122 -59 265 -65 320 -13 108 -27 166 -119
480 -154 523 -193 652 -217 709 -15 34 -68 167 -118 296 -110 280 -162 397
-319 715 -224 453 -396 708 -641 950 -223 221 -417 339 -692 421 -111 33 -302
42 -403 19z m23 -622 c47 -47 61 -110 131 -583 24 -168 67 -456 94 -640 27
-184 66 -447 86 -585 19 -137 56 -362 80 -500 51 -287 82 -521 125 -960 16
-170 39 -404 51 -520 11 -115 34 -316 50 -445 51 -401 57 -458 73 -690 75
-1080 75 -2496 1 -3445 -17 -217 -37 -373 -60 -475 -8 -36 -19 -124 -24 -196
-11 -156 -23 -187 -107 -263 -59 -54 -216 -167 -272 -195 -18 -10 -45 -16 -60
-14 -38 4 -39 33 -4 169 75 289 128 699 167 1274 30 452 36 669 42 1345 14
1745 -91 3091 -377 4815 -58 348 -84 479 -168 840 -22 94 -52 226 -66 293 -15
68 -41 163 -57 210 -50 144 -80 263 -86 342 -7 96 5 111 127 175 163 83 210
93 254 48z m-2636 -226 c29 -8 54 -16 56 -18 9 -9 -27 -191 -84 -419 -108
-434 -187 -799 -236 -1085 -14 -82 -42 -233 -64 -335 -182 -879 -292 -2466
-251 -3620 35 -962 96 -1799 171 -2325 53 -365 130 -835 180 -1088 22 -110 40
-215 40 -234 0 -29 -3 -33 -25 -33 -54 0 -158 71 -169 115 -4 17 -21 32 -54
47 -71 34 -378 343 -420 425 -80 153 -101 364 -122 1228 -29 1231 -20 2319 25
2935 13 190 38 566 55 835 33 528 72 1055 95 1280 32 309 63 729 85 1150 28
543 53 796 81 842 41 66 248 237 357 295 54 28 62 30 142 25 47 -3 109 -12
138 -20z m1056 -679 c55 -18 104 -41 110 -50 7 -12 5 -32 -7 -71 -24 -77 -53
-276 -82 -567 -212 -2145 -230 -2412 -244 -3605 -13 -1047 3 -1976 45 -2575
45 -671 107 -1069 264 -1700 82 -329 102 -441 82 -454 -6 -4 -37 0 -69 8 -32
8 -125 26 -208 40 -82 14 -170 32 -195 41 -91 32 -130 104 -130 240 0 107 -19
324 -40 465 -28 186 -57 570 -91 1220 -27 530 -21 2263 11 3280 25 769 43
1075 100 1710 48 529 83 968 110 1360 37 552 40 585 50 619 5 18 17 45 26 59
16 24 19 24 93 19 47 -3 114 -18 175 -39z"/>
<path d="M14885 14999 c-633 -62 -1123 -428 -1451 -1081 -151 -300 -233 -595
-286 -1028 -20 -167 -22 -230 -22 -635 -1 -483 8 -620 60 -985 68 -484 194
-976 329 -1286 64 -146 201 -420 288 -573 130 -231 526 -678 800 -906 398
-331 928 -613 1322 -705 302 -70 797 -80 1033 -19 199 51 458 228 621 424 231
279 330 602 277 905 -23 131 -68 305 -111 428 -36 103 -296 657 -333 709 -25
36 -124 232 -152 303 -137 342 -209 713 -240 1245 -5 94 -10 368 -10 610 -1
914 -24 1137 -146 1395 -53 112 -173 310 -257 423 -200 271 -451 506 -559 524
-29 4 -43 13 -53 33 -27 52 -257 151 -472 201 -73 18 -127 22 -318 24 -126 2
-270 -1 -320 -6z m407 -538 c82 -21 201 -72 231 -99 33 -29 45 -71 62 -222 35
-309 128 -595 208 -640 25 -14 28 -13 57 15 64 61 150 283 150 387 0 98 49
105 130 20 132 -140 252 -415 279 -637 24 -205 46 -670 61 -1275 19 -791 51
-1063 165 -1406 61 -182 136 -354 346 -792 100 -207 196 -414 215 -459 143
-344 93 -654 -138 -868 -77 -71 -192 -134 -289 -159 -236 -60 -791 6 -961 113
-51 33 -126 61 -161 61 -56 0 -266 130 -477 295 -279 219 -636 561 -767 735
-71 94 -202 333 -300 545 -163 352 -233 618 -352 1345 -74 454 -75 466 -75
805 0 259 4 341 22 495 85 699 204 1028 494 1360 74 86 171 165 191 157 8 -3
28 -56 46 -119 77 -268 130 -407 169 -442 20 -18 23 -18 47 -2 38 25 71 81
116 200 55 148 97 314 108 429 14 142 29 161 141 181 49 9 209 -5 282 -23z"/>
<path d="M31865 14990 c-149 -8 -202 -20 -300 -65 -96 -44 -324 -181 -413
-249 -41 -31 -82 -56 -92 -56 -50 0 -506 -495 -525 -570 -9 -34 -46 -81 -127
-160 -81 -80 -120 -156 -144 -280 -14 -73 -17 -214 -24 -995 -8 -922 -14
-1071 -51 -1330 -48 -336 -118 -543 -337 -1000 -303 -635 -337 -716 -409
-1000 l-48 -190 0 -170 c1 -157 3 -177 28 -260 61 -198 165 -363 338 -535 301
-301 530 -390 1009 -390 431 0 748 87 1261 346 170 86 289 158 369 224 25 21
65 46 90 57 55 24 203 157 415 374 323 330 512 571 605 773 30 65 46 89 67 98
15 7 29 13 31 14 1 0 11 32 22 70 10 38 60 166 111 284 107 252 115 273 133
399 8 53 37 184 64 291 148 578 218 1358 182 2000 -19 331 -47 502 -129 791
-68 238 -103 334 -172 469 -115 226 -234 408 -288 441 -17 10 -30 29 -34 46
-16 82 -325 308 -599 438 -143 68 -248 102 -363 120 -112 17 -497 26 -670 15z
m484 -527 c11 -13 20 -47 24 -90 13 -154 161 -626 214 -685 25 -27 58 -22 89
15 36 42 65 109 126 291 55 163 92 246 110 246 38 0 310 -335 373 -460 222
-441 328 -1119 285 -1820 -20 -313 -59 -583 -135 -935 -24 -110 -49 -234 -55
-275 -22 -151 -30 -183 -69 -268 -47 -105 -71 -183 -71 -232 0 -48 -49 -147
-200 -405 -217 -371 -283 -456 -567 -736 -250 -246 -372 -347 -437 -363 -17
-4 -64 -31 -105 -60 -146 -103 -539 -288 -672 -317 -271 -59 -631 -85 -749
-54 -136 35 -348 157 -377 216 -6 13 -14 35 -17 49 -3 14 -24 45 -46 70 -22
25 -45 61 -51 80 -17 53 -23 308 -10 403 15 99 71 271 141 427 54 120 100 243
100 268 0 8 16 32 35 54 59 64 246 463 342 728 76 210 125 502 169 1010 14
156 18 324 18 835 1 561 4 654 19 755 40 256 84 384 189 551 39 63 80 134 90
157 11 24 38 62 59 83 44 44 125 99 146 99 19 0 39 -51 63 -161 25 -116 58
-186 110 -233 43 -39 79 -46 104 -20 17 16 21 32 31 105 3 28 21 72 45 111 50
83 70 154 79 286 10 126 24 164 79 214 66 60 206 88 415 85 78 -2 91 -5 106
-24z"/>
</g>
</svg>
